<svg width="191" height="63" viewBox="0 0 191 63" fill="none" xmlns="http://www.w3.org/2000/svg">
<path d="M81.2197 43.3429C79.5061 43.3429 78.0388 42.9787 76.8178 42.2504C75.5968 41.5221 74.6757 40.5475 74.0545 39.3265C73.4333 38.0841 73.1228 36.7025 73.1228 35.1816H78.7135C78.7135 36.1456 78.9277 36.8953 79.3561 37.4308C79.7845 37.9449 80.4057 38.2019 81.2197 38.2019C82.0337 38.2019 82.6549 37.9342 83.0833 37.3987C83.5117 36.8417 83.7259 36.0492 83.7259 35.021V20.4336H89.3488V35.1174C89.3488 36.6811 89.0275 38.0841 88.3849 39.3265C87.7423 40.5689 86.8105 41.5543 85.5895 42.2826C84.3685 42.9894 82.9119 43.3429 81.2197 43.3429ZM101.791 43.3429C100.185 43.3429 98.6638 42.9894 97.2287 42.2826C95.8149 41.5757 94.6689 40.5582 93.7907 39.2301C92.9338 37.902 92.5054 36.3491 92.5054 34.5712C92.5054 32.8147 92.9338 31.2724 93.7907 29.9443C94.6689 28.6162 95.8149 27.5988 97.2287 26.8919C98.6638 26.1636 100.185 25.7994 101.791 25.7994C103.398 25.7994 104.908 26.1636 106.322 26.8919C107.735 27.5988 108.871 28.6162 109.728 29.9443C110.606 31.2724 111.045 32.8147 111.045 34.5712C111.045 36.3491 110.606 37.902 109.728 39.2301C108.871 40.5582 107.735 41.5757 106.322 42.2826C104.908 42.9894 103.398 43.3429 101.791 43.3429ZM101.791 38.5554C102.948 38.5554 103.89 38.1805 104.619 37.4308C105.368 36.6811 105.743 35.7279 105.743 34.5712C105.743 33.4359 105.368 32.4934 104.619 31.7436C103.89 30.9725 102.948 30.5869 101.791 30.5869C100.635 30.5869 99.6813 30.9725 98.9316 31.7436C98.2033 32.4934 97.8392 33.4359 97.8392 34.5712C97.8392 35.7279 98.2033 36.6811 98.9316 37.4308C99.6813 38.1805 100.635 38.5554 101.791 38.5554ZM124.341 25.7994C125.712 25.7994 127.029 26.1636 128.293 26.8919C129.557 27.6202 130.585 28.6484 131.378 29.9764C132.17 31.3045 132.567 32.8361 132.567 34.5712C132.567 36.3062 132.17 37.8485 131.378 39.198C130.585 40.5261 129.557 41.5543 128.293 42.2826C127.029 42.9894 125.712 43.3429 124.341 43.3429C122.092 43.3429 120.346 42.6574 119.104 41.2865V42.9252H114.123V19.791H119.489V27.5024C120.689 26.3671 122.306 25.7994 124.341 25.7994ZM123.249 38.5875C124.405 38.5875 125.359 38.2126 126.108 37.4629C126.879 36.6918 127.265 35.7279 127.265 34.5712C127.265 33.4144 126.879 32.4612 126.108 31.7115C125.359 30.9404 124.405 30.5548 123.249 30.5548C122.092 30.5548 121.128 30.9404 120.357 31.7115C119.607 32.4612 119.232 33.4144 119.232 34.5712C119.232 35.7279 119.607 36.6918 120.357 37.4629C121.128 38.2126 122.092 38.5875 123.249 38.5875ZM144.33 23.2611C143.58 23.2611 142.98 23.486 142.531 23.9358C142.081 24.3643 141.856 24.9747 141.856 25.7673V26.2171H145.679V30.9404H141.856V42.9252H136.49V30.9404H133.759V26.2171H136.49V25.1247C136.49 23.154 137.026 21.6117 138.097 20.4978C139.189 19.384 140.731 18.827 142.723 18.827H145.679V23.2611H144.33ZM153.719 42.9252H148.353V26.2171H153.719V42.9252ZM153.783 23.6467H148.256V19.3411H153.783V23.6467ZM165.67 25.7994C167.255 25.7994 168.722 26.1636 170.072 26.8919C171.442 27.6202 172.535 28.6484 173.349 29.9764C174.184 31.2831 174.602 32.7718 174.602 34.4426C174.602 34.9353 174.548 35.5029 174.441 36.1456H162.039C162.253 37.1523 162.681 37.9342 163.324 38.4911C163.967 39.048 164.77 39.3265 165.734 39.3265C166.505 39.3265 167.148 39.1873 167.662 38.9088C168.197 38.6303 168.647 38.2126 169.011 37.6557H174.12C173.499 39.3479 172.46 40.7189 171.003 41.7685C169.547 42.8181 167.769 43.3429 165.67 43.3429C164.063 43.3429 162.574 42.9787 161.203 42.2504C159.833 41.5221 158.729 40.4939 157.894 39.1659C157.08 37.8378 156.673 36.3062 156.673 34.5712C156.673 32.8361 157.08 31.3045 157.894 29.9764C158.729 28.6484 159.833 27.6202 161.203 26.8919C162.574 26.1636 164.063 25.7994 165.67 25.7994ZM165.67 29.8479C164.77 29.8479 163.999 30.105 163.356 30.6191C162.735 31.1117 162.307 31.84 162.071 32.804H169.333C169.161 31.9257 168.765 31.2188 168.144 30.6833C167.523 30.1264 166.698 29.8479 165.67 29.8479ZM188.973 26.0243V30.7797H186.82C185.728 30.7797 184.796 31.1546 184.025 31.9043C183.275 32.6326 182.9 33.5751 182.9 34.7318V42.9252H177.534V26.2171H182.514V28.145C183.8 26.7312 185.513 26.0243 187.655 26.0243H188.973Z" fill="white"/>
<path d="M0.000102997 51.5557V10.921C0.000102997 5.77092 5.28648 2.31466 10.0041 4.3803L33.2098 14.541C35.8077 15.6784 37.4861 18.2456 37.4861 21.0816V41.395C37.4861 44.231 35.8077 46.7982 33.2098 47.9357L10.0042 58.0963C5.28649 60.162 0.000102997 56.7057 0.000102997 51.5557Z" fill="#8FBCFF"/>
<g filter="url(#filter0_b_568_786)">
<path d="M17.8504 51.5557V10.921C17.8504 5.77092 23.1368 2.31466 27.8545 4.3803L51.0601 14.541C53.658 15.6784 55.3364 18.2456 55.3364 21.0816V41.395C55.3364 44.231 53.658 46.7982 51.0601 47.9357L27.8545 58.0963C23.1368 60.162 17.8504 56.7057 17.8504 51.5557Z" fill="#BE7DFF" fill-opacity="0.6"/>
</g>
<defs>
<filter id="filter0_b_568_786" x="12.4952" y="-1.58225" width="48.1964" height="65.6411" filterUnits="userSpaceOnUse" color-interpolation-filters="sRGB">
<feFlood flood-opacity="0" result="BackgroundImageFix"/>
<feGaussianBlur in="BackgroundImage" stdDeviation="2.67757"/>
<feComposite in2="SourceAlpha" operator="in" result="effect1_backgroundBlur_568_786"/>
<feBlend mode="normal" in="SourceGraphic" in2="effect1_backgroundBlur_568_786" result="shape"/>
</filter>
</defs>
</svg>
